<svg width="54" height="31" viewBox="0 0 54 31" fill="none" xmlns="http://www.w3.org/2000/svg">
<mask id="mask0_23_37" style="mask-type:luminance" maskUnits="userSpaceOnUse" x="0" y="4" width="54" height="23">
<path d="M0.00917053 4.099H53.9894V26.8897H0.00917053V4.099Z" fill="white"/>
</mask>
<g mask="url(#mask0_23_37)">
<path d="M51.5619 19.5674C51.0078 20.8501 50.1576 21.9984 49.1203 22.9314C48.0817 23.8673 46.8319 24.5573 45.496 24.9643C44.8276 25.167 44.1362 25.2992 43.4361 25.3495C43.2612 25.3566 43.0856 25.3711 42.9103 25.3729L42.3847 25.3667C42.2972 25.3685 42.2093 25.3613 42.1219 25.353L41.8587 25.3306L41.595 25.3089C41.5071 25.2987 41.4201 25.2832 41.3326 25.2705C40.6301 25.1821 39.9357 25 39.2521 24.7808C38.566 24.5657 37.8998 24.2754 37.2429 23.9635L36.7538 23.72L36.2729 23.4581C36.1109 23.3729 35.9539 23.2791 35.7967 23.1851C35.6399 23.09 35.4794 23.0017 35.3252 22.9014C34.7019 22.5139 34.0944 22.0965 33.4966 21.6622C32.3079 20.7846 31.1745 19.8211 30.0961 18.7939C29.2572 17.9986 28.4454 17.1702 27.6766 16.2998L27.8073 16.1315L28.0173 15.4983C28.0289 15.6918 27.9585 15.9317 27.8402 16.089C27.7822 16.1654 27.8298 16.1028 27.8199 16.1168L27.8298 16.1041L27.871 16.0533L27.9558 15.9498L28.1281 15.7417L28.4818 15.3273C28.7199 15.0516 28.9632 14.7791 29.2096 14.5096C29.7026 13.97 30.2095 13.4426 30.7277 12.9283C31.7672 11.9028 32.8534 10.9291 33.991 10.0375C34.5573 9.58687 35.1425 9.16887 35.7347 8.76463C36.3314 8.36876 36.9396 7.99666 37.5617 7.66043C38.8071 6.99726 40.1123 6.46983 41.4409 6.21747C41.5241 6.20163 41.6067 6.18085 41.6899 6.16889L41.9392 6.13674L42.1885 6.104L42.3132 6.08726L42.4374 6.08008L42.9349 6.05318C43.102 6.05004 43.2703 6.05676 43.4379 6.05721C44.1089 6.08143 44.7756 6.18443 45.4241 6.35845C46.073 6.53247 46.7024 6.78213 47.3011 7.09458C47.9008 7.40599 48.4661 7.78811 48.9844 8.23002C50.0212 9.11191 50.8792 10.2225 51.4588 11.4743C52.0455 12.722 52.3636 14.1026 52.3822 15.4974C52.3982 16.8918 52.1216 18.2884 51.5619 19.5674ZM26.2502 14.783L26.2384 14.7976L26.1961 14.8528C26.1917 14.8586 26.1878 14.8652 26.1831 14.8713L26.1853 14.8652L26.0281 15.0684L25.8609 15.2792C25.7476 15.4197 25.6338 15.5602 25.5173 15.6993C25.2853 15.9785 25.048 16.2547 24.8068 16.5278C24.3242 17.0738 23.8267 17.6072 23.3168 18.1262C22.2946 19.1622 21.2189 20.1413 20.0895 21.0347C19.5275 21.4866 18.944 21.9029 18.353 22.3037C17.7599 22.7004 17.1491 23.0613 16.5287 23.3957C15.2816 24.044 13.9755 24.556 12.6416 24.7924L12.3923 24.8396L12.1417 24.8688C11.975 24.8856 11.808 24.9143 11.6413 24.9227L11.1403 24.944C11.0988 24.9453 11.0572 24.9483 11.0152 24.9487L10.8892 24.9456L10.6373 24.9399C9.96593 24.9143 9.29708 24.8175 8.64728 24.6435C7.34811 24.2966 6.11734 23.6701 5.06925 22.8006C4.02423 21.9298 3.15968 20.8284 2.56276 19.5877C1.96612 18.3472 1.638 16.9713 1.609 15.5788C1.57692 14.1857 1.84278 12.7864 2.3899 11.5025C2.6631 10.8606 3.00382 10.2469 3.40651 9.67657C3.81168 9.10877 4.27399 8.58075 4.78873 8.11027C5.30304 7.63935 5.86671 7.2218 6.47052 6.87407C7.07535 6.52813 7.71783 6.24887 8.38317 6.04122C9.0485 5.83401 9.73815 5.70111 10.436 5.64624C11.136 5.58659 11.8321 5.62905 12.5322 5.72533C13.2318 5.81996 13.9244 6.00459 14.6054 6.23212C14.9477 6.34081 15.2816 6.47865 15.6179 6.6108C15.9486 6.75791 16.2834 6.89754 16.6075 7.06408C16.9361 7.21956 17.2547 7.39761 17.5768 7.57044C17.8929 7.75417 18.2127 7.93267 18.5219 8.13061C18.8353 8.32062 19.1392 8.52827 19.4474 8.72875C19.7505 8.9382 20.0561 9.14361 20.3527 9.36412C20.9505 9.79662 21.5341 10.2526 22.1038 10.7266C22.6748 11.1998 23.2323 11.6903 23.78 12.194C24.6541 12.9977 25.4991 13.8362 26.306 14.7136L26.2973 14.7242L26.2502 14.783ZM53.0148 10.7377C52.3592 9.24183 51.3658 7.90397 50.1497 6.82773C48.9355 5.7479 47.4749 4.95167 45.9149 4.50945C45.1354 4.28805 44.331 4.1529 43.5227 4.11179C43.3201 4.10745 43.1184 4.09729 42.9154 4.09863L42.3041 4.1224L42.1513 4.12943L42.0003 4.14677L41.6985 4.1816L41.3968 4.21748C41.2963 4.23064 41.1984 4.25277 41.0993 4.27041C39.508 4.54743 38.0295 5.14871 36.6473 5.86675C35.9577 6.23123 35.2923 6.63114 34.6443 7.05392C34.0023 7.48373 33.3711 7.92729 32.7655 8.40105C31.5507 9.34423 30.4078 10.3671 29.3156 11.438C28.771 11.9753 28.2394 12.5253 27.7212 13.089C27.4619 13.3714 27.206 13.6568 26.9536 13.9467C26.8272 14.0916 26.7021 14.2382 26.5774 14.3858L26.3908 14.6103L26.348 14.6623C24.6709 12.5562 22.7753 10.6242 20.6921 8.90635C20.4032 8.66476 20.1037 8.43723 19.8072 8.20521C19.505 7.98081 19.2028 7.75596 18.8903 7.54472C18.5829 7.32645 18.2621 7.12672 17.9452 6.92131C17.6215 6.72696 17.2998 6.52723 16.9655 6.34873C16.637 6.15962 16.2942 5.99622 15.9548 5.82564C15.6079 5.66971 15.2629 5.50795 14.9049 5.3746C14.1936 5.09833 13.459 4.86332 12.6976 4.72204C12.6024 4.7038 12.5088 4.67869 12.4127 4.66673L12.1244 4.62651C11.9317 4.60095 11.74 4.56955 11.5443 4.56297C11.3495 4.55236 11.1542 4.53472 10.9598 4.53068C10.7654 4.53293 10.5706 4.5262 10.3762 4.53636C9.59796 4.56552 8.82042 4.68183 8.06324 4.8841C7.30607 5.08562 6.56969 5.37535 5.87228 5.74341C5.17486 6.11283 4.51861 6.56297 3.91466 7.07859C1.48038 9.12552 0.000304252 12.3341 0.00894684 15.5919C0.00338042 17.217 0.348791 18.8513 1.02071 20.3372C1.69337 21.8233 2.69825 23.1488 3.92286 24.2105C5.15113 25.2687 6.60821 26.0559 8.1649 26.4898C8.94288 26.7094 9.74503 26.837 10.5503 26.8795L10.8525 26.8906L11.0036 26.8958C11.0537 26.8962 11.1048 26.894 11.1551 26.8928L11.7629 26.8759C11.9654 26.8675 12.1647 26.8384 12.3655 26.8199L12.6664 26.788L12.9624 26.7372C13.7577 26.6162 14.5239 26.393 15.2707 26.1346L15.8253 25.9274C16.008 25.8545 16.1868 25.7737 16.3673 25.6968L16.6379 25.5796L16.902 25.4515C17.0773 25.3654 17.2543 25.2815 17.4283 25.1935C18.1184 24.8299 18.7907 24.4385 19.4379 24.0135C20.0817 23.5849 20.7141 23.1409 21.3176 22.6637C21.9245 22.1905 22.5142 21.697 23.0826 21.1823C23.6523 20.6689 24.209 20.1418 24.7466 19.5965C25.2848 19.0522 25.8087 18.4938 26.3177 17.9204C26.5723 17.6341 26.8233 17.3433 27.07 17.0477C27.194 16.9006 27.3164 16.7513 27.438 16.6006L27.6208 16.3722L27.6281 16.3624C27.877 16.6873 28.1334 17.0071 28.394 17.3221C28.8727 17.9009 29.3679 18.4665 29.8789 19.0178C30.9031 20.118 31.994 21.1572 33.1525 22.1216C33.7352 22.5988 34.3308 23.0636 34.9543 23.4908C35.1075 23.6012 35.2685 23.7006 35.4252 23.8063C35.5828 23.9109 35.7409 24.0153 35.9036 24.1115L36.3894 24.4071L36.8858 24.685C37.5546 25.0434 38.2392 25.3817 38.9574 25.6464C39.673 25.9145 40.4093 26.1465 41.1721 26.2817C41.2669 26.2999 41.3616 26.321 41.457 26.337L41.7457 26.3741L42.0349 26.4102C42.131 26.4235 42.2275 26.435 42.3249 26.4377L42.9094 26.4682C43.1038 26.4744 43.2982 26.4664 43.4928 26.466C44.2721 26.4421 45.0501 26.3268 45.8089 26.1302C47.3259 25.7352 48.7657 25.0009 49.9856 23.9798C51.2064 22.9623 52.2199 21.671 52.9061 20.2077C53.597 18.7478 53.9732 17.1255 53.9887 15.4974C54.0069 13.8699 53.6736 12.231 53.0148 10.7377Z" fill="#D49671"/>
</g>
</svg>
