<svg xmlns="http://www.w3.org/2000/svg" xmlns:xlink="http://www.w3.org/1999/xlink" zoomAndPan="magnify" preserveAspectRatio="xMidYMid meet" version="1.0" viewBox="0.32 417.25 1189.47 849.04"><defs><clipPath id="e22348cdef"><path d="M 0.324219 417.246094 L 1189.5 417.246094 L 1189.5 1266.28125 L 0.324219 1266.28125 Z M 0.324219 417.246094 " clip-rule="nonzero"></path></clipPath></defs><g clip-path="url(#e22348cdef)"><path fill="#D49671" d="M 609.066406 924.902344 C 667.222656 1005.707031 762.074219 1058.363281 869.246094 1058.363281 C 878.648438 1058.363281 887.917969 1057.980469 897.125 1057.195312 C 882.214844 1133.660156 851.613281 1204.476562 808.757812 1266.28125 C 1027.511719 1193.648438 1185.96875 988.910156 1189.664062 746.5625 C 1189.730469 743.707031 1189.792969 740.726562 1189.792969 737.804688 C 1189.792969 734.886719 1189.730469 731.902344 1189.664062 729.050781 C 1185 555.964844 1043.394531 417.246094 869.246094 417.246094 C 791.898438 417.246094 720.90625 444.675781 665.46875 490.335938 C 637.65625 513.289062 613.796875 540.851562 595.058594 571.855469 C 565.691406 620.234375 548.769531 677.039062 548.769531 737.804688 C 548.769531 807.648438 571.070312 872.242188 609.066406 924.902344 Z M 0.324219 737.804688 C 0.324219 638.125 45.707031 549.15625 117.023438 490.335938 C 172.394531 444.675781 243.453125 417.246094 320.808594 417.246094 C 412.351562 417.246094 494.890625 455.570312 553.242188 517.113281 C 508.5 581.125 483.933594 657.78125 483.933594 737.804688 C 483.933594 835.148438 520.171875 924.1875 579.953125 992.085938 C 513.882812 1120.625 399.253906 1220.105469 260.246094 1266.28125 C 303.101562 1204.476562 333.710938 1133.660156 348.621094 1057.195312 C 339.476562 1057.980469 330.140625 1058.363281 320.808594 1058.363281 C 143.804688 1058.363281 0.324219 914.851562 0.324219 737.804688 " fill-opacity="1" fill-rule="nonzero"></path></g></svg>